<?xml version="1.0" encoding="UTF-8"?>
<svg width="56px" height="56px" viewBox="0 0 56 56" version="1.1" xmlns="http://www.w3.org/2000/svg" xmlns:xlink="http://www.w3.org/1999/xlink">
    <!-- Generator: Sketch 61 (89581) - https://sketch.com -->
    <title>Fill 1</title>
    <desc>Created with Sketch.</desc>
    <g id="Design" stroke="none" stroke-width="1" fill="none" fill-rule="evenodd">
        <g id="Journal" transform="translate(-1536.000000, -185.000000)" fill="#020F14">
            <g id="Search" transform="translate(1536.000000, 185.000000)">
                <g id="Group-2">
                    <g id="Group">
                        <path d="M34.5936698,54.8230091 C34.0624507,54.6956695 33.312986,54.3317062 33.0761663,54.5379204 C29.3734208,58.1034306 25.3316981,53.8632103 21.4627145,55.1280541 C20.4634283,55.4587571 18.9970036,54.623447 17.8500533,54.1026848 C12.335405,51.5891522 7.74853268,47.8297816 3.94455836,43.097308 C3.14401494,42.1118512 2.53478468,40.8498582 2.2403853,39.6144735 C1.39526406,35.7667254 0.652300322,31.8743134 0.0560719262,27.974299 C-0.110166209,26.7322623 0.107150683,25.3125202 0.524139078,24.1065947 C2.38154841,18.6471448 4.02814178,13.0689078 8.08193765,8.73365791 C8.7673217,7.9933774 9.42763071,7.10865192 9.81861538,6.15455483 C10.6377329,4.25016184 11.7456776,3.49372631 13.9494937,3.50988134 C16.2805424,3.52983755 16.7736846,-0.359723574 19.5858024,0.0270468576 C21.8536991,0.357749831 24.4029935,1.74043037 26.3625603,1.11133448 C30.5129415,-0.245688066 33.011157,3.58210383 36.4770828,3.60776181 C38.6353925,3.61821507 40.0507384,5.38766604 42.3242074,5.35820687 C45.0025917,5.35155479 45.1047492,5.8599631 45.2199086,9.34374788 C45.2449836,10.9592509 45.7966341,11.8601314 47.2565579,12.1490214 C49.5374565,12.6013622 50.9723053,13.7863812 51.1255415,16.3170192 C51.1450443,16.5821518 51.1961231,16.9100038 51.3428584,17.0639518 C58.337862,23.1962112 55.6344027,31.1653927 54.6991971,38.4408581 C53.932087,44.4609826 49.2811341,48.4788337 44.6246089,51.7592551 C41.3574258,54.0798777 37.3352059,54.8952316 34.5936698,54.8230091" id="Fill-1"></path>
                    </g>
                </g>
            </g>
        </g>
    </g>
</svg>