<svg xmlns="http://www.w3.org/2000/svg" viewBox="0 0 7.12397 18.68011"><title>about-heart-right</title><path d="M6.58846,2.17437A1.73891,1.73891,0,0,0,5.08888,1.249a6.04238,6.04238,0,0,0-.64026.07245v2.083a.49122.49122,0,0,1,.13282.0689,1.32853,1.32853,0,0,1,.31805.39692A2.398,2.398,0,0,1,5.11,4.41253a1.88717,1.88717,0,0,1,.07056.4364,5.173,5.173,0,0,1-.17084,1.23859A10.70294,10.70294,0,0,1,4.561,7.46685a10.37165,10.37165,0,0,1-.6037,1.26142,3.14529,3.14529,0,0,1-.60657.8078,4.30492,4.30492,0,0,0-.82708,1.532c-.25208.68714-.54065,1.40253-.858,2.12634A10.30444,10.30444,0,0,1,.59505,15.09558a1.45232,1.45232,0,0,1-.52649.51989l.05615,3.0492a.48791.48791,0,0,0,.06189-.0105,1.24534,1.24534,0,0,0,.28827.026c.36676,0,.70361-.31708,1.12677-1.05993.33868-.59656.75488-1.42853,1.23724-2.47358q.72291-1.56609,1.66669-3.67505c.62-1.38629,1.35309-2.9132,2.18018-4.54046a3.74545,3.74545,0,0,0,.354-1.10632A7.24284,7.24284,0,0,0,7.124,4.72869,4.81605,4.81605,0,0,0,6.58846,2.17437Z" style="fill:#020f14"/></svg>