<svg xmlns="http://www.w3.org/2000/svg" viewBox="0 0 8.60461 8.97065"><title>about-heart-top</title><path d="M.42358,2.10926A.69125.69125,0,0,1,.909,2.31544,2.72706,2.72706,0,0,1,1.42468,3.01a6.21543,6.21543,0,0,1,.43781,1.04364c.13183.40765.25043.82171.35327,1.22888a28.10505,28.10505,0,0,1,.47729,3.36774.35012.35012,0,0,0,.34864.32037H4.10211L4.01807,4.408c-.00977.01678-.02314.03131-.03278.04815l-.05341.09473A6.62382,6.62382,0,0,0,3.658,3.412a9.29679,9.29679,0,0,0-.7937-1.77252A6.08994,6.08994,0,0,0,2.00891.48817C1.54169.02247,1.394-.04626,1.18994.023A4.40961,4.40961,0,0,1,.26465.18732C.17523.19587.08856.21992,0,.23383V2.18867A.832.832,0,0,1,.42358,2.10926Z" style="fill:#020f14"/><path d="M7.38879,1.60792a6.19164,6.19164,0,0,0-1.85565.9638,5.78479,5.78479,0,0,0-.87561.89649,7.66886,7.66886,0,0,0-.63946.93982l.084,4.56262h.18775a.35024.35024,0,0,0,.34124-.27252,9.387,9.387,0,0,1,.67731-2.03021A9.42978,9.42978,0,0,1,6.47369,4.90925,6.06967,6.06967,0,0,1,8.46539,3.3805a.36878.36878,0,0,0,.05732-.01862.48843.48843,0,0,1,.0819.04255v-2.083A6.04779,6.04779,0,0,0,7.38879,1.60792Z" style="fill:#020f14"/></svg>