<svg xmlns="http://www.w3.org/2000/svg" viewBox="0 0 7.17048 18.68011"><title>about-heart-left</title><path d="M5.71661,15.44513A5.59489,5.59489,0,0,1,4.923,14.27478a14.51984,14.51984,0,0,1-.72723-1.62586q-.3381-.89208-.597-1.72473-.2601-.8377-.441-1.47632-.1842-.6525-.26623-.8988-.07974-.2375-.21845-.69269-.1375-.45052-.27526-1.059-.13862-.60864-.23725-1.27765A8.749,8.749,0,0,1,2.064,4.24719a4.10356,4.10356,0,0,1,.296-1.572.83582.83582,0,0,1,.46082-.48657V.23382A4.43415,4.43415,0,0,0,1.73517.536a3.04568,3.04568,0,0,0-1.20148.97027A3.31582,3.31582,0,0,0,0,3.56475q0,.5376.06177,1.17737A9.50232,9.50232,0,0,0,.37,6.29138a34.10042,34.10042,0,0,0,1.50024,4.88537,33.5479,33.5479,0,0,0,1.80481,3.89283A15.58761,15.58761,0,0,0,5.40167,17.656c.62165.71778,1.04248,1.02417,1.40784,1.02417h.2008a.48378.48378,0,0,0,.09113-.0155l-.05615-3.0492a1.4527,1.4527,0,0,1-.65943.19782A.93508.93508,0,0,1,5.71661,15.44513Z" style="fill:#020f14"/></svg>