<?xml version="1.0" encoding="UTF-8"?>
<svg width="483px" height="90px" viewBox="0 0 483 90" version="1.1" xmlns="http://www.w3.org/2000/svg" xmlns:xlink="http://www.w3.org/1999/xlink">
    <!-- Generator: Sketch 60.1 (88133) - https://sketch.com -->
    <title>Group 23</title>
    <desc>Created with Sketch.</desc>
    <defs>
        <polygon id="path-1" points="0.648407002 0.782 25.485 0.782 25.485 47.5953057 0.648407002 47.5953057"></polygon>
    </defs>
    <g id="Design" stroke="none" stroke-width="1" fill="none" fill-rule="evenodd">
        <g id="Home-" transform="translate(-634.000000, -5637.000000)">
            <g id="Journal" transform="translate(346.000000, 4262.000000)">
                <g id="Group-23" transform="translate(270.000000, 1371.000000)">
                    <g id="Group-18-Copy" transform="translate(47.022601, 47.500000) rotate(-45.000000) translate(-47.022601, -47.500000) translate(29.022601, -1.000000)">
                        <g id="Group-12">
                            <g id="Group-3" transform="translate(10.000000, 0.218200)">
                                <mask id="mask-2" fill="white">
                                    <use xlink:href="#path-1"></use>
                                </mask>
                                <g id="Clip-2"></g>
                                <path d="M12.7936,45.9495 C14.5916,38.3575 16.4936,30.7935 18.4356,23.2415 C19.3886,19.4595 20.3656,15.6855 21.3766,11.9205 L21.7516,10.5075 L21.9396,9.8005 C21.9786,9.6035 22.0166,9.4495 22.0446,9.2705 C22.1346,8.5755 22.0656,7.8665 21.8316,7.2105 C21.3556,5.8885 20.2266,4.8665 18.8896,4.5235 C17.5536,4.1855 16.0996,4.5175 15.0486,5.4005 C14.5306,5.8425 14.1296,6.4075 13.8696,7.0355 C13.8066,7.1995 13.7656,7.3465 13.7016,7.5325 L13.5076,8.2375 L13.1206,9.6475 L10.0006,20.9195 L6.7736,32.1615 C5.6556,35.8975 4.5716,39.6425 3.4076,43.3665 L2.4256,41.6385 L14.0406,44.8355 C14.7886,45.0415 15.2286,45.8155 15.0226,46.5635 C14.8166,47.3115 14.0436,47.7505 13.2946,47.5445 L1.6796,44.3475 C0.9486,44.1465 0.5126,43.4025 0.6866,42.6705 L0.6986,42.6195 C1.6036,38.8255 2.5886,35.0535 3.5396,31.2715 L6.5206,19.9615 L9.6086,8.6805 L9.9966,7.2715 L10.1906,6.5665 C10.2786,6.2895 10.3766,5.9685 10.4906,5.6795 C10.9686,4.5045 11.7316,3.4395 12.6996,2.6195 C13.6746,1.8095 14.8356,1.2215 16.0766,0.9495 C17.3186,0.6875 18.6266,0.7355 19.8386,1.0745 C21.0486,1.4245 22.1786,2.0715 23.0916,2.9385 C24.0036,3.8085 24.6836,4.9035 25.0906,6.0875 C25.4866,7.2755 25.5836,8.5625 25.3856,9.7945 C25.3346,10.0965 25.2526,10.4155 25.1846,10.6935 L24.9836,11.3965 L24.5826,12.8025 C23.5236,16.5545 22.4326,20.2975 21.3166,24.0335 C19.1196,31.5165 16.8826,38.9885 14.5426,46.4305 C14.3926,46.9085 13.8826,47.1745 13.4046,47.0245 C12.9486,46.8805 12.6866,46.4075 12.7936,45.9495" id="Fill-1" fill="#231F20" mask="url(#mask-2)"></path>
                            </g>
                            <path d="M0.1715,82.6321 C3.5475,69.4421 7.0425,56.0641 10.6985,42.8391 C10.9035,42.0901 11.6775,41.6511 12.4255,41.8571 L24.0405,45.0541 C24.7885,45.2601 25.2285,46.0331 25.0225,46.7811 L14.3625,85.5081 C14.1565,86.2561 13.3825,86.6951 12.6345,86.4891 C8.4395,85.3501 4.1945,83.9931 0.1715,82.6321 M2.6135,81.2441 C6.3345,82.0141 9.8325,82.7891 13.3805,83.7801 L11.6535,84.7621 L22.3135,46.0351 L23.2955,47.7631 L11.6795,44.5661 L13.4065,43.5841 C9.9555,56.1771 6.3435,68.6161 2.6135,81.2441" id="Fill-4" fill="#231F20"></path>
                            <path d="M14.0411,86.0867 L5.1301,95.7617 C4.6051,96.3327 3.7161,96.3687 3.1451,95.8427 C2.9301,95.6447 2.7911,95.3937 2.7291,95.1287 L2.7221,95.0987 C2.2251,92.9627 1.7721,90.8187 1.3071,88.6757 C1.0821,87.6037 0.8301,86.5367 0.6271,85.4587 C0.4191,84.3817 0.1911,83.3107 0.0181,82.2267 C-0.1049,81.4597 0.4171,80.7387 1.1841,80.6157 C1.9041,80.4997 2.5851,80.9587 2.7681,81.6497 C3.0441,82.7117 3.2671,83.7837 3.5101,84.8537 C3.7591,85.9207 3.9571,86.9997 4.1831,88.0717 C4.6191,90.2197 5.0681,92.3657 5.4721,94.5207 L3.0641,93.8577 L11.9751,84.1837 C12.5001,83.6127 13.3891,83.5767 13.9591,84.1017 C14.5301,84.6277 14.5671,85.5157 14.0411,86.0867" id="Fill-6" fill="#231F20"></path>
                            <line x1="4.0973" y1="94.8098" x2="3.5453" y2="96.8128" id="Stroke-8" stroke="#231F20" stroke-width="2.81" stroke-linecap="round" stroke-linejoin="round"></line>
                            <line x1="27.3507" y1="10.3313" x2="23.9677" y2="22.6233" id="Stroke-10" stroke="#231F20" stroke-width="2.81" stroke-linecap="round" stroke-linejoin="round"></line>
                        </g>
                    </g>
                    <g id="Group-3" transform="translate(77.000000, 81.000000)" fill="#000000">
                        <path d="M27.4537231,7.02703534 C31.2837231,6.11503534 33.5367231,5.30503534 33.8027231,4.11003534 C33.8767231,3.77703534 33.8357231,3.28003534 33.2147231,2.79603534 C32.0197231,1.86603534 29.9257231,2.43403534 28.3607231,3.27503534 C27.5477231,3.71303534 26.6797231,4.33303534 26.0157231,5.05603534 C25.7887231,5.09503534 25.6327231,5.11003534 25.4347231,5.12903534 C24.9227231,5.17803534 24.1497231,5.25103534 21.6207231,5.73703534 C14.1097231,7.18203534 7.3337231,8.47203534 0.468723101,9.61303534 C0.163723101,9.66403534 -0.0432768994,9.95203534 0.00772310059,10.2580353 C0.0547231006,10.5360353 0.296723101,10.7230353 0.573723101,10.7160353 L0.577723101,10.9160353 C0.554723101,10.9190353 0.531723101,10.9230353 0.508723101,10.9260353 C0.202723101,10.9710353 -0.00927689941,11.2560353 0.0357231006,11.5620353 C0.0767231006,11.8410353 0.315723101,12.0410353 0.589723101,12.0410353 C0.616723101,12.0410353 0.643723101,12.0400353 0.671723101,12.0350353 C9.4557231,10.7470353 17.3947231,9.29803534 24.8997231,7.61203534 C24.9007231,7.61703534 24.9017231,7.62203534 24.9017231,7.62803534 C24.9617231,8.39203534 25.4487231,9.44703534 27.4207231,10.1340353 C28.7057231,10.5820353 30.0647231,10.6420353 31.3797231,10.7000353 L31.7317231,10.7160353 C33.6597231,10.8050353 35.6627231,10.7770353 37.6807231,10.6300353 C43.1227231,10.2360353 48.6237231,9.31403534 53.9437231,8.42203534 C56.4707231,7.99803534 59.0837231,7.56003534 61.6427231,7.18703534 L64.3917231,6.78803534 C67.3937231,6.35303534 68.6357231,6.17303534 70.4817231,5.87103534 C70.7927231,6.60503534 71.6967231,7.37203534 73.9107231,7.79403534 C82.9067231,9.50903534 93.3207231,7.81203534 102.508723,6.31603534 C104.994723,5.91103534 107.342723,5.52803534 109.640723,5.21003534 C110.591723,5.07903534 111.943723,4.73803534 113.520723,4.32003534 C113.507723,4.39303534 113.500723,4.46403534 113.498723,4.53803534 C113.456723,6.14303534 115.956723,6.77503534 116.778723,6.98303534 C125.170723,9.10503534 135.317723,8.15803534 144.271723,7.32503534 C146.426723,7.12403534 148.524723,6.92903534 150.530723,6.78103534 C152.239723,6.65603534 153.945723,6.49703534 155.652723,6.33803534 L156.446723,6.26503534 C156.943723,7.03503534 158.263723,7.57703534 160.442723,7.91103534 C167.466723,8.99003534 175.007723,8.28103534 182.299723,7.59503534 C183.861723,7.44803534 185.403723,7.30403534 186.916723,7.18003534 C187.653723,7.11703534 188.451723,7.16303534 189.293723,7.21203534 C191.318723,7.32703534 193.413723,7.44503534 194.888723,6.05303534 C195.353723,5.61303534 195.486723,4.99703534 195.242723,4.40403534 C194.958723,3.71203534 194.203723,3.21103534 193.551723,3.19903534 C193.100723,3.21003534 192.726723,3.46003534 192.524723,3.87603534 C192.294723,3.89803534 192.032723,3.92303534 191.732723,3.94903534 L187.866723,4.29703534 C186.688723,4.40503534 186.688723,4.40503534 186.041723,4.44103534 C185.377723,4.47803534 184.041723,4.55303534 180.111723,4.81703534 C175.257723,5.14303534 170.330723,5.23203534 165.555723,5.31003534 C165.607723,5.10503534 165.614723,4.84803534 165.520723,4.53203534 C165.428723,4.22303534 165.286723,3.94503534 165.100723,3.70203534 C165.220723,3.54003534 165.277723,3.35703534 165.286723,3.27003534 C165.310723,3.01603534 165.160723,2.77503534 164.921723,2.68703534 C164.692723,2.60103534 164.409723,2.71003534 164.258723,2.90103534 C164.254723,2.90603534 164.250723,2.91103534 164.245723,2.91603534 C164.216723,2.91903534 164.183723,2.92203534 164.149723,2.92503534 C163.312723,2.49803534 162.163723,2.36103534 160.797723,2.55703534 C159.921723,2.68303534 159.032723,2.94003534 158.273723,3.29203534 C157.175723,3.37003534 156.076723,3.45603534 154.977723,3.54003534 C153.433723,3.66003534 151.890723,3.78003534 150.345723,3.88103534 C148.780723,3.98403534 146.513723,4.21803534 143.888723,4.49003534 C134.600723,5.45303534 120.643723,6.90003534 115.610723,4.81003534 C116.670723,4.06603534 121.018723,2.80003534 123.959723,2.13103534 C123.997723,2.12303534 124.034723,2.11403534 124.071723,2.10503534 C124.875723,2.07403534 125.569723,2.12003534 126.100723,2.28403534 C126.502723,2.40803534 126.820723,2.50703534 127.069723,2.18503534 C127.212723,2.00103534 127.224723,1.74403534 127.101723,1.54603534 C127.038723,1.44303534 126.827723,1.31903534 126.515723,1.18603534 C126.755723,0.994035342 126.859723,0.796035342 126.823723,0.591035342 C126.800723,0.462035342 126.682723,0.0400353419 126.033723,0.123035342 C125.311723,0.211035342 124.589723,0.301035342 123.865723,0.394035342 C122.560723,0.100035342 121.214723,-0.0859646581 120.583723,0.0400353419 C120.240723,0.108035342 118.604723,0.587035342 116.991723,1.33703534 C114.787723,1.65403534 112.597723,1.97903534 110.437723,2.29903534 C102.329723,3.50403534 93.9467231,4.74903534 85.6417231,5.42603534 C85.4687231,5.44003534 85.1527231,5.47403534 84.7277231,5.52103534 C76.5667231,6.41803534 73.3957231,6.10803534 72.2687231,5.57303534 C73.1087231,5.43103534 74.1087231,5.26103534 75.3707231,5.04503534 C75.7437231,4.98303534 76.3227231,4.98703534 76.8817231,4.99203534 C78.2137231,5.00503534 79.3567231,5.01403534 79.8287231,4.35403534 C79.9707231,4.15603534 80.1037231,3.81903534 79.9357231,3.34003534 C79.7837231,2.90503534 79.5577231,2.53003534 79.2687231,2.21903534 C79.4377231,1.83103534 79.3027231,1.57403534 79.1957231,1.44703534 C78.9257231,1.12603534 78.5307231,1.14603534 77.8897231,1.36003534 C77.1957231,1.13503534 76.3687231,1.09003534 75.4477231,1.23903534 C74.1057231,1.45803534 72.6717231,2.08803534 71.6667231,2.91703534 C70.8617231,3.04303534 70.0557231,3.16703534 69.2487231,3.28303534 C66.7617231,3.64103534 64.2737231,3.99503534 61.7867231,4.35003534 C56.0457231,5.16703534 50.3057231,5.98503534 44.5687231,6.84803534 L43.8387231,6.95803534 C38.3897231,7.77903534 37.5527231,7.90503534 32.0557231,8.18403534 C31.7517231,8.20003534 31.4477231,8.22103534 31.1427231,8.24203534 C30.2307231,8.30503534 29.3677231,8.36403534 28.5117231,8.28003534 C27.0347231,8.13403534 26.8247231,7.82103534 26.8227231,7.82103534 C26.8147231,7.67103534 26.9627231,7.42503534 27.4537231,7.02703534" id="Fill-1"></path>
                        <path d="M255.453723,7.02703534 C259.283723,6.11503534 261.536723,5.30503534 261.802723,4.11003534 C261.876723,3.77703534 261.835723,3.28003534 261.214723,2.79603534 C260.019723,1.86603534 257.925723,2.43403534 256.360723,3.27503534 C255.547723,3.71303534 254.679723,4.33303534 254.015723,5.05603534 C253.788723,5.09503534 253.632723,5.11003534 253.434723,5.12903534 C252.922723,5.17803534 252.149723,5.25103534 249.620723,5.73703534 C242.109723,7.18203534 235.333723,8.47203534 228.468723,9.61303534 C228.163723,9.66403534 227.956723,9.95203534 228.007723,10.2580353 C228.054723,10.5360353 228.296723,10.7230353 228.573723,10.7160353 L228.577723,10.9160353 C228.554723,10.9190353 228.531723,10.9230353 228.508723,10.9260353 C228.202723,10.9710353 227.990723,11.2560353 228.035723,11.5620353 C228.076723,11.8410353 228.315723,12.0410353 228.589723,12.0410353 C228.616723,12.0410353 228.643723,12.0400353 228.671723,12.0350353 C237.455723,10.7470353 245.394723,9.29803534 252.899723,7.61203534 C252.900723,7.61703534 252.901723,7.62203534 252.901723,7.62803534 C252.961723,8.39203534 253.448723,9.44703534 255.420723,10.1340353 C256.705723,10.5820353 258.064723,10.6420353 259.379723,10.7000353 L259.731723,10.7160353 C261.659723,10.8050353 263.662723,10.7770353 265.680723,10.6300353 C271.122723,10.2360353 276.623723,9.31403534 281.943723,8.42203534 C284.470723,7.99803534 287.083723,7.56003534 289.642723,7.18703534 L292.391723,6.78803534 C295.393723,6.35303534 296.635723,6.17303534 298.481723,5.87103534 C298.792723,6.60503534 299.696723,7.37203534 301.910723,7.79403534 C310.906723,9.50903534 321.320723,7.81203534 330.508723,6.31603534 C332.994723,5.91103534 335.342723,5.52803534 337.640723,5.21003534 C338.591723,5.07903534 339.943723,4.73803534 341.520723,4.32003534 C341.507723,4.39303534 341.500723,4.46403534 341.498723,4.53803534 C341.456723,6.14303534 343.956723,6.77503534 344.778723,6.98303534 C353.170723,9.10503534 363.317723,8.15803534 372.271723,7.32503534 C374.426723,7.12403534 376.524723,6.92903534 378.530723,6.78103534 C380.239723,6.65603534 381.945723,6.49703534 383.652723,6.33803534 L384.446723,6.26503534 C384.943723,7.03503534 386.263723,7.57703534 388.442723,7.91103534 C395.466723,8.99003534 403.007723,8.28103534 410.299723,7.59503534 C411.861723,7.44803534 413.403723,7.30403534 414.916723,7.18003534 C415.653723,7.11703534 416.451723,7.16303534 417.293723,7.21203534 C419.318723,7.32703534 421.413723,7.44503534 422.888723,6.05303534 C423.353723,5.61303534 423.486723,4.99703534 423.242723,4.40403534 C422.958723,3.71203534 422.203723,3.21103534 421.551723,3.19903534 C421.100723,3.21003534 420.726723,3.46003534 420.524723,3.87603534 C420.294723,3.89803534 420.032723,3.92303534 419.732723,3.94903534 L415.866723,4.29703534 C414.688723,4.40503534 414.688723,4.40503534 414.041723,4.44103534 C413.377723,4.47803534 412.041723,4.55303534 408.111723,4.81703534 C403.257723,5.14303534 398.330723,5.23203534 393.555723,5.31003534 C393.607723,5.10503534 393.614723,4.84803534 393.520723,4.53203534 C393.428723,4.22303534 393.286723,3.94503534 393.100723,3.70203534 C393.220723,3.54003534 393.277723,3.35703534 393.286723,3.27003534 C393.310723,3.01603534 393.160723,2.77503534 392.921723,2.68703534 C392.692723,2.60103534 392.409723,2.71003534 392.258723,2.90103534 C392.254723,2.90603534 392.250723,2.91103534 392.245723,2.91603534 C392.216723,2.91903534 392.183723,2.92203534 392.149723,2.92503534 C391.312723,2.49803534 390.163723,2.36103534 388.797723,2.55703534 C387.921723,2.68303534 387.032723,2.94003534 386.273723,3.29203534 C385.175723,3.37003534 384.076723,3.45603534 382.977723,3.54003534 C381.433723,3.66003534 379.890723,3.78003534 378.345723,3.88103534 C376.780723,3.98403534 374.513723,4.21803534 371.888723,4.49003534 C362.600723,5.45303534 348.643723,6.90003534 343.610723,4.81003534 C344.670723,4.06603534 349.018723,2.80003534 351.959723,2.13103534 C351.997723,2.12303534 352.034723,2.11403534 352.071723,2.10503534 C352.875723,2.07403534 353.569723,2.12003534 354.100723,2.28403534 C354.502723,2.40803534 354.820723,2.50703534 355.069723,2.18503534 C355.212723,2.00103534 355.224723,1.74403534 355.101723,1.54603534 C355.038723,1.44303534 354.827723,1.31903534 354.515723,1.18603534 C354.755723,0.994035342 354.859723,0.796035342 354.823723,0.591035342 C354.800723,0.462035342 354.682723,0.0400353419 354.033723,0.123035342 C353.311723,0.211035342 352.589723,0.301035342 351.865723,0.394035342 C350.560723,0.100035342 349.214723,-0.0859646581 348.583723,0.0400353419 C348.240723,0.108035342 346.604723,0.587035342 344.991723,1.33703534 C342.787723,1.65403534 340.597723,1.97903534 338.437723,2.29903534 C330.329723,3.50403534 321.946723,4.74903534 313.641723,5.42603534 C313.468723,5.44003534 313.152723,5.47403534 312.727723,5.52103534 C304.566723,6.41803534 301.395723,6.10803534 300.268723,5.57303534 C301.108723,5.43103534 302.108723,5.26103534 303.370723,5.04503534 C303.743723,4.98303534 304.322723,4.98703534 304.881723,4.99203534 C306.213723,5.00503534 307.356723,5.01403534 307.828723,4.35403534 C307.970723,4.15603534 308.103723,3.81903534 307.935723,3.34003534 C307.783723,2.90503534 307.557723,2.53003534 307.268723,2.21903534 C307.437723,1.83103534 307.302723,1.57403534 307.195723,1.44703534 C306.925723,1.12603534 306.530723,1.14603534 305.889723,1.36003534 C305.195723,1.13503534 304.368723,1.09003534 303.447723,1.23903534 C302.105723,1.45803534 300.671723,2.08803534 299.666723,2.91703534 C298.861723,3.04303534 298.055723,3.16703534 297.248723,3.28303534 C294.761723,3.64103534 292.273723,3.99503534 289.786723,4.35003534 C284.045723,5.16703534 278.305723,5.98503534 272.568723,6.84803534 L271.838723,6.95803534 C266.389723,7.77903534 265.552723,7.90503534 260.055723,8.18403534 C259.751723,8.20003534 259.447723,8.22103534 259.142723,8.24203534 C258.230723,8.30503534 257.367723,8.36403534 256.511723,8.28003534 C255.034723,8.13403534 254.824723,7.82103534 254.822723,7.82103534 C254.814723,7.67103534 254.962723,7.42503534 255.453723,7.02703534" id="Fill-1-Copy" transform="translate(325.681367, 6.020518) rotate(-180.000000) translate(-325.681367, -6.020518) "></path>
                    </g>
                </g>
            </g>
        </g>
    </g>
</svg>