<?xml version="1.0" encoding="UTF-8"?>
<svg width="250px" height="272px" viewBox="0 0 250 272" version="1.1" xmlns="http://www.w3.org/2000/svg" xmlns:xlink="http://www.w3.org/1999/xlink">
    <!-- Generator: Sketch 60.1 (88133) - https://sketch.com -->
    <title>Group 10</title>
    <desc>Created with Sketch.</desc>
    <g id="Design" stroke="none" stroke-width="1" fill="none" fill-rule="evenodd">
        <g id="For-Business" transform="translate(-551.000000, -3881.000000)" fill="#000000">
            <g id="Integrations" transform="translate(-333.000000, 2867.000000)">
                <g id="Group-16" transform="translate(741.123997, 768.961522)">
                    <g id="Group-10" transform="translate(143.710586, 245.593628)">
                        <path d="M224.64918,254.780972 C223.757081,254.905645 222.915133,255.021308 222.564767,255.041141 C213.619337,255.490108 204.459568,255.450343 195.600858,255.409751 L190.195355,255.389415 C187.976064,255.386386 185.755914,255.374469 183.535746,255.36366 L179.248387,255.345003 C176.659135,255.335923 174.78102,255.325081 173.345942,255.316159 C168.654644,255.289685 168.654644,255.289685 164.212079,255.473169 C162.659832,255.537384 160.560127,255.62538 157.512833,255.74161 C149.161512,256.062354 140.683301,256.629034 132.484396,257.17894 C120.694203,257.966507 108.504513,258.781827 96.5392732,258.871844 C93.7304618,258.896217 88.8158709,258.505033 83.1250441,258.057799 C71.6474924,257.155931 58.6376753,256.129044 53.5230573,257.643491 C50.4974893,258.539688 49.5116365,260.236055 49.0311031,261.853491 C47.2878873,261.723282 15.8242292,259.42776 3.78217245,262.745365 C3.78019021,262.744217 3.77822542,262.741961 3.77626063,262.739706 C2.7528372,262.057895 1.42189575,262.422465 0.805923592,263.558241 C0.686450778,263.777706 0.602780504,264.010062 0.553070148,264.245292 C9.09494702e-13,264.929864 -0.170648044,265.935644 0.189385426,266.826393 C0.677407251,268.036761 1.95606096,268.579356 3.04974408,268.038316 C3.17878918,267.973172 3.3187977,267.910457 3.46578771,267.848986 C6.73642563,269.174194 11.5858096,269.704944 17.3009391,269.815547 C22.4041617,269.914308 28.1987599,269.678259 34.169431,269.375758 C36.7438665,269.245941 38.9649545,269.13479 40.6486929,269.104168 C41.748468,269.065572 47.3696375,269.935053 49.2155337,270.213622 C50.899821,270.465777 50.8978213,270.465738 51.320834,270.341967 C51.5780691,270.265997 52.3382495,269.817194 53.2323769,269.182473 C55.1757654,270.320097 57.9421019,270.19843 59.6905985,270.12027 C60.0118463,270.107636 60.2789278,270.105043 60.465074,270.097556 C68.9062471,270.295292 77.4427041,269.840628 85.7169742,269.395306 L88.6729277,269.236279 C96.6928176,268.812648 104.846515,268.656629 112.89406,268.572852 C117.626017,268.81191 122.328578,269.075904 126.965184,269.336403 C149.484697,270.601663 172.771639,271.910606 196.032129,270.135227 C197.814545,269.998953 199.610715,269.87847 201.413902,269.757013 C209.189313,269.234395 217.168972,268.697988 224.857434,266.900686 C227.982806,267.034357 230.654476,266.954104 232.400837,266.058655 C232.692237,265.90905 233.35317,265.47496 233.674482,264.505359 C236.925336,264.546094 239.39756,263.984051 240.655281,262.044555 C241.069394,261.406089 241.444261,260.465247 241.357103,259.203866 C241.390985,258.004707 240.99566,257.132126 240.672581,256.625766 C238.468626,253.171073 231.835994,253.78234 224.64918,254.780972" id="Fill-1"></path>
                        <path d="M234.633532,18.3369223 C234.730394,19.3218091 234.820006,20.2512956 234.831776,20.6375979 C235.080538,30.4995597 234.884818,40.5891592 234.693606,50.3471016 L234.580928,56.3013848 C234.539464,58.7460753 234.48997,61.1915592 234.441476,63.6370815 L234.349826,68.3596603 C234.296449,71.2117904 234.253894,73.2805112 234.220803,74.8612209 C234.115054,80.0286377 234.115054,80.0286377 234.202987,84.9256947 C234.233806,86.6367449 234.276516,88.9512801 234.328151,92.3101572 C234.47165,101.515432 234.834719,110.864754 235.187538,119.906103 C235.692003,132.907694 236.214525,146.349847 236.08688,159.532169 C236.059839,162.626744 235.621296,168.033812 235.118659,174.295001 C234.105037,186.92289 232.951932,201.236536 234.228407,206.897001 C234.9838,210.245472 236.496389,211.360895 237.946616,211.918295 C237.79877,213.836342 235.179537,248.456511 237.961211,261.779429 C237.960142,261.781593 237.958073,261.783718 237.956005,261.785844 C237.323282,262.90141 237.628826,264.373881 238.642325,265.072126 C238.838155,265.207542 239.046235,265.303742 239.2575,265.362582 C239.865202,265.983478 240.769238,266.189136 241.578805,265.807976 C242.67884,265.291368 243.190471,263.892229 242.721646,262.678058 C242.66515,262.534774 242.611037,262.379455 242.558168,262.216466 C243.810329,258.636554 244.373595,253.303737 244.573081,247.009939 C244.751208,241.390004 244.639467,235.002652 244.470872,228.420188 C244.398733,225.58197 244.337259,223.13332 244.33903,221.278003 C244.323417,220.065835 245.205623,213.888703 245.489054,211.860117 C245.745844,210.0091 245.745774,210.011302 245.641539,209.54317 C245.577518,209.258486 245.186052,208.413297 244.629261,207.417329 C245.689095,205.296246 245.627653,202.246774 245.587684,200.319296 C245.581897,199.965194 245.58422,199.670935 245.580717,199.465749 C245.906355,190.170486 245.645318,180.758944 245.38813,171.636387 L245.296307,168.377387 C245.05424,159.535428 245.055843,150.550709 245.120741,141.68418 C245.418909,136.475659 245.739051,131.299955 246.054891,126.196845 C247.58893,101.411569 249.175757,75.7816597 247.98066,50.1274006 C247.888875,48.161549 247.81157,46.1808206 247.733509,44.1923461 C247.397909,35.6179854 247.053437,26.8183883 245.566802,18.3177022 C245.741892,14.8771491 245.716146,11.9326783 244.939103,9.99337845 C244.809274,9.66978197 244.429344,8.93417717 243.560559,8.56340873 C243.654029,4.98301447 243.190322,2.2498958 241.463222,0.830769081 C240.894677,0.363514235 240.052762,-0.0657514938 238.913719,0.00838452246 C237.832902,-0.0497354144 237.039103,0.370616532 236.576826,0.717734182 C233.422898,3.08566982 233.858387,10.4026971 234.633532,18.3369223" id="Fill-1-Copy-12"></path>
                    </g>
                </g>
            </g>
        </g>
    </g>
</svg>