<?xml version="1.0" encoding="UTF-8"?>
<svg width="163px" height="170px" viewBox="0 0 163 170" version="1.1" xmlns="http://www.w3.org/2000/svg" xmlns:xlink="http://www.w3.org/1999/xlink">
    <!-- Generator: Sketch 60.1 (88133) - https://sketch.com -->
    <title>Group 7</title>
    <desc>Created with Sketch.</desc>
    <g id="Design" stroke="none" stroke-width="1" fill="none" fill-rule="evenodd">
        <g id="For-Business" transform="translate(-408.000000, -3637.000000)" fill="#020F14">
            <g id="Integrations" transform="translate(-333.000000, 2867.000000)">
                <g id="Group-16" transform="translate(741.123997, 768.961522)">
                    <g id="Group-7">
                        <path d="M27.3481529,13.1257805 C28.8154141,12.9863886 30.280426,12.8110246 31.7409669,12.6154263 C31.8732671,12.6176745 32.0040724,12.6199228 32.1333827,12.6244193 C59.032922,13.6968375 83.7909924,13.7822713 107.821038,12.885217 C113.902361,12.6581432 120.080854,12.1815128 126.05529,11.718372 C126.227206,11.7026342 126.399121,11.6891447 126.571784,11.6779034 C127.074076,11.7228686 127.574874,11.7745784 128.075671,11.8262883 C135.268465,12.5794542 142.574125,12.6536466 149.790837,12.0443692 C150.856713,11.9544389 153.799458,10.9921853 156.082196,10.1378479 C157.897773,9.46112277 159.07502,8.97999593 159.838923,8.58430283 L160.145381,8.60453714 C160.17229,8.60453714 162.070834,8.33474639 162.086607,6.30681925 C162.086607,6.2528611 162.091763,4.98034806 161.579754,4.93313468 C153.312115,4.18221709 144.377742,5.0657818 134.919402,6.0010564 C124.681461,7.01052346 114.095953,8.05821087 104.301256,6.87562808 C101.69711,6.56312046 99.0914695,6.23937156 96.484334,5.91562266 C68.072686,2.39710163 38.7842691,-1.23158395 10.0654157,6.99028915 C9.9562867,6.97455136 9.84566283,6.95881356 9.73204913,6.94082751 C5.39529446,6.30232274 1.74022202,6.04826978 0.950158301,9.43639195 C0.756566529,10.2637502 0.727415645,11.2799621 0.868685316,12.2961739 C1.46141997,16.5678608 3.85926708,18 7.30804096,18 C10.5819095,18 14.8035556,16.7072527 19.3234376,15.3245751 C22.0374597,14.4927203 24.8060463,13.6451276 27.3481529,13.1257805" id="Fill-1" transform="translate(81.433517, 10.000000) rotate(1.000000) translate(-81.433517, -10.000000) "></path>
                        <path d="M-45.4322731,93.372499 C-43.9650119,93.2331071 -42.5,93.0577431 -41.0394591,92.8621448 C-40.9071589,92.8643931 -40.7763536,92.8666413 -40.6470433,92.8711378 C-13.747504,93.9435561 11.0105664,94.0289898 35.0406122,93.1319356 C41.1219352,92.9048617 47.3004278,92.4282314 53.2748642,91.9650906 C53.4467797,91.9493528 53.6186952,91.9358632 53.7913581,91.924622 C54.2936503,91.9695871 54.7944475,92.021297 55.2952448,92.0730069 C62.4880387,92.8261727 69.7936988,92.9003652 77.0104114,92.2910877 C78.0762873,92.2011575 81.0190317,91.2389038 83.3017702,90.3845664 C85.1173471,89.7078413 86.2945944,89.2267145 87.058497,88.8310214 L87.364955,88.8512557 C87.3918636,88.8512557 89.2904083,88.5814649 89.3061812,86.5535378 C89.3061812,86.4995796 89.3113372,85.2270666 88.7993281,85.1798532 C80.5316887,84.4289356 71.5973164,85.3125003 62.1389755,86.2477749 C51.9010354,87.257242 41.315527,88.3049294 31.5208298,87.1223466 C28.9166841,86.809839 26.3110435,86.4860901 23.703908,86.1623412 C-4.70773999,82.6438202 -33.9961569,79.0151346 -62.7150103,87.2370077 C-62.8241393,87.2212699 -62.9347632,87.2055321 -63.0483769,87.187546 C-67.3851315,86.5490413 -71.040204,86.2949883 -71.8302677,89.6831105 C-72.0238595,90.5104688 -72.0530104,91.5266806 -71.9117407,92.5428924 C-71.319006,96.8145793 -68.9211589,98.2467185 -65.472385,98.2467185 C-62.1985165,98.2467185 -57.9768704,96.9539712 -53.4569884,95.5712936 C-50.7429663,94.7394388 -47.9743797,93.8918462 -45.4322731,93.372499" id="Fill-1-Copy-18" transform="translate(8.653091, 90.246719) rotate(-90.000000) translate(-8.653091, -90.246719) "></path>
                    </g>
                </g>
            </g>
        </g>
    </g>
</svg>