<svg xmlns="http://www.w3.org/2000/svg" viewBox="0 0 16.17592 10.64918" preserveAspectRatio="none"><title>hero-heart-piece4</title><path d="M1.40975,10.05061c.28833-.34455.58557-.68189.88861-1.0163.60907-.666,1.25055-1.29865,1.90229-1.91681A22.668,22.668,0,0,1,8.41421,3.94264a7.27972,7.27972,0,0,1,4.49164-1.08289,1.72667,1.72667,0,0,1,.78418.21283.33834.33834,0,0,1,.17089.16217s2.55467-.147,2.2967-1.64044c-.963-.90013-.53034-.61945-.87726-.84394a3.86364,3.86364,0,0,0-.98718-.47778,7.05966,7.05966,0,0,0-.89447-.1925A10.19492,10.19492,0,0,0,7.00625,1.37727,25.61694,25.61694,0,0,0,2.06,4.79682L.31448,6.81611h0s-1.01513,3.34141.60229,3.83307Z" style="fill:#231f20"/></svg>