<svg xmlns="http://www.w3.org/2000/svg" viewBox="0 0 227.0445 101.0123"><title>hero-arm-main</title><path d="M56.98572,25.14359a44.85345,44.85345,0,0,1,62.78345-8.52685l31.699,24.11779.78075.572a26.13173,26.13173,0,0,0,35.79375-5.53908l24.11778-31.699L227.0445,15.39367,202.92731,47.09139a44.85446,44.85446,0,0,1-62.7844,8.52718l-31.699-24.11779A26.12963,26.12963,0,0,0,72.47007,35.709" style="fill:#f85e49;fill-rule:evenodd"/><path d="M7.34809,72.65469l34.079-44.79134a11.66638,11.66638,0,0,1,16.30043-2.21349L70.46717,35.3423a11.66727,11.66727,0,0,1,2.2135,16.30042L38.59912,96.436A11.66615,11.66615,0,0,1,22.299,98.65043L9.56288,88.9589A11.66828,11.66828,0,0,1,7.34809,72.65469" style="fill:#f85e49;fill-rule:evenodd"/><path d="M46.82329,45.70317a5.99368,5.99368,0,1,1,8.39924-1.14067,5.99373,5.99373,0,0,1-8.39924,1.14067" style="fill:#020f14;fill-rule:evenodd"/><path d="M26.1426,54.197c-2.3187-1.76422.40988-5.352,2.72985-3.58719,2.3187,1.76422-.41115,5.35141-2.72985,3.58719" style="fill:#020f14;fill-rule:evenodd"/><path d="M19.86172,59.82043c-.39248-2.88754,4.07448-3.49388,4.466-.606.39248,2.88754-4.07354,3.49355-4.466.606" style="fill:#020f14;fill-rule:evenodd"/><path d="M14.44926,66.93422c-.39247-2.88754,4.07449-3.49388,4.466-.606.39247,2.88754-4.07354,3.49355-4.466.606" style="fill:#020f14;fill-rule:evenodd"/><path d="M3.71278,69.93623l34.079-44.79135a11.66727,11.66727,0,0,1,16.30042-2.21349l12.73963,9.69244a11.66728,11.66728,0,0,1,2.2135,16.30042L34.96382,93.71753A11.66616,11.66616,0,0,1,18.66371,95.932L5.92758,86.24044A11.66846,11.66846,0,0,1,3.71278,69.93623Z" style="fill:none;stroke:#020f14;stroke-linejoin:round;stroke-width:2.70000000374204px"/><path d="M136.44223,37.96278c2.3186-2.60688,4.82034-4.986,5.27479-4.59991.43459.35908-2.1902,4.4664-4.75539,7.75469-2.91156,3.72908-6.07177,7.15986-6.77642,6.96251-.92318-.26381,2.60212-5.09156,6.257-10.11729" style="fill:#020f14;fill-rule:evenodd"/><path d="M129.97224,33.03969c2.3186-2.60689,4.82034-4.986,5.27385-4.59959.4349.36-2.18894,4.467-4.75446,7.75437-2.91156,3.72908-6.07178,7.15986-6.77641,6.96251-.92319-.26381,2.60116-5.09123,6.257-10.11729" style="fill:#020f14;fill-rule:evenodd"/><path d="M123.50189,28.11683c2.3186-2.60689,4.82035-4.986,5.27479-4.59992.43491.36-2.18987,4.46734-4.75539,7.75469-2.91156,3.72908-6.07177,7.15986-6.77642,6.96252-.92318-.26382,2.60212-5.09156,6.257-10.11729" style="fill:#020f14;fill-rule:evenodd"/><path d="M117.03156,23.194c2.3186-2.60689,4.82033-4.986,5.27479-4.59992.4349.36-2.18989,4.46735-4.7554,7.75469-2.91156,3.72908-6.07178,7.15986-6.77642,6.96252-.92318-.26382,2.60212-5.09156,6.257-10.11729" style="fill:#020f14;fill-rule:evenodd"/><path d="M110.56156,18.27086c2.31859-2.60688,4.82034-4.986,5.27385-4.59958.43491.36-2.18894,4.467-4.75446,7.75436-2.91156,3.72908-6.07177,7.15986-6.77642,6.96252-.92318-.26381,2.60118-5.09124,6.257-10.1173" style="fill:#020f14;fill-rule:evenodd"/><path d="M68.83481,32.9903A26.13084,26.13084,0,0,1,104.809,28.783l31.69866,24.11684a44.85381,44.85381,0,0,0,62.78473-8.52623L223.4092,12.675" style="fill:none;stroke:#020f14;stroke-linecap:round;stroke-linejoin:round;stroke-width:2.70000000374204px"/><path d="M53.35031,22.42516a44.85347,44.85347,0,0,1,62.78347-8.52686l31.699,24.11779.78075.572A26.13174,26.13174,0,0,0,184.40727,33.049L208.525,1.35" style="fill:none;stroke:#020f14;stroke-linecap:round;stroke-linejoin:round;stroke-width:2.70000000374204px"/><path d="M214.20775,13.44885c2.527,2.42438,4.73842,5.14567,4.17158,5.83687-.52954.65826-4.75768-1.80753-8.02975-4.39311-3.71158-2.93451-7.01-6.26934-6.60566-7.24513.53388-1.27847,5.39719,2.19969,10.46383,5.80137" style="fill:#020f14;fill-rule:evenodd"/><path d="M209.28492,19.91929c2.52665,2.42343,4.73841,5.14567,4.17158,5.83686-.52954.65827-4.75769-1.80752-8.02975-4.39311-3.71191-2.93545-7.01-6.26933-6.60566-7.24513.53387-1.27846,5.39718,2.19969,10.46383,5.80138" style="fill:#020f14;fill-rule:evenodd"/><path d="M204.362,26.38935c2.527,2.42438,4.73842,5.14567,4.17158,5.83687-.52954.65826-4.75768-1.80753-8.02975-4.39312-3.71158-2.9345-7.01-6.26933-6.60566-7.24513.53388-1.27847,5.39719,2.19969,10.46383,5.80138" style="fill:#020f14;fill-rule:evenodd"/><path d="M199.439,32.85982c2.52666,2.42343,4.73937,5.14533,4.17158,5.83686-.52957.65827-4.75768-1.80753-8.02879-4.39344-3.71286-2.93512-7.011-6.269-6.60662-7.2448.53385-1.27846,5.39719,2.19969,10.46383,5.80138" style="fill:#020f14;fill-rule:evenodd"/><path d="M194.5161,39.33c2.527,2.42438,4.73936,5.14534,4.17158,5.83687-.52957.65827-4.75769-1.80753-8.0288-4.39344-3.71254-2.93418-7.011-6.269-6.60661-7.24481.53386-1.27846,5.39719,2.19969,10.46383,5.80138" style="fill:#020f14;fill-rule:evenodd"/><polyline points="45.552 79.802 29.926 67.913 50.452 40.933" style="fill:none;stroke:#020f14;stroke-linecap:round;stroke-linejoin:round;stroke-width:2.84800000324073px"/></svg>