<svg xmlns="http://www.w3.org/2000/svg" viewBox="0 0 9.09095 17.77157"><title>hero-smiley-mouth1</title><path d="M9.0561,14.0649a7.05945,7.05945,0,0,1-1.44348-1.89733A32.27209,32.27209,0,0,1,5.37,6.94613C4.74317,5.12472,4.18519,3.231,3.727,1.38815l-.00873-.03662L3.71247,1.331A1.90343,1.90343,0,0,0,1.42616.05959q-.0435.00788-.08649.01807a1.73776,1.73776,0,0,0-1.293,2.09C.58241,4.16134,1.185,6.06851,1.88734,7.998a35.23407,35.23407,0,0,0,2.59723,5.725,9.87314,9.87314,0,0,0,2.35211,2.83484c.15594.11426.3371.22675.50763.33393l.38745.20623.75177.39106c.20227.09393.4046.18866.60742.28259v-3.682Z" style="fill:#231f20"/></svg>