<svg xmlns="http://www.w3.org/2000/svg" viewBox="0 0 400 572"><title>hero-arm-ul-stretch</title><path d="M56.20525,453.26418c.267-3.479.817-6.887,1.413-6.854.564.022.962,4.88.91,9.05-.058,4.731-.496,9.374-1.177,9.644-.893.349-1.012-5.627-1.146-11.84" style="fill:#020f14;fill-rule:evenodd"/><path d="M64.33565,453.26418c.266-3.479.817-6.887,1.413-6.854.563.022.962,4.88.91,9.05-.058,4.731-.496,9.374-1.177,9.644-.894.349-1.012-5.627-1.146-11.84" style="fill:#020f14;fill-rule:evenodd"/><path d="M72.466,453.26418c.266-3.479.817-6.887,1.412-6.854.564.022.962,4.88.911,9.05-.058,4.731-.496,9.374-1.177,9.644-.894.349-1.012-5.627-1.146-11.84" style="fill:#020f14;fill-rule:evenodd"/><path d="M80.59585,453.26369c.267-3.478.817-6.886,1.413-6.854.563.022.962,4.88.91,9.05-.058,4.731-.496,9.375-1.177,9.644-.894.349-1.012-5.627-1.146-11.84" style="fill:#020f14;fill-rule:evenodd"/><path d="M88.72625,453.26369c.266-3.478.817-6.886,1.413-6.854.563.022.962,4.88.91,9.05-.058,4.731-.496,9.375-1.177,9.644-.894.349-1.012-5.627-1.146-11.84" style="fill:#020f14;fill-rule:evenodd"/><path d="M398.89,444.82238H54.70505a44.85412,44.85412,0,0,0-44.802,44.803h18.703a26.1304,26.1304,0,0,1,25.131-26.082H398.89" style="fill:none;stroke:#020f14;stroke-linecap:round;stroke-linejoin:round;stroke-width:2.70000004768372px"/></svg>