<svg xmlns="http://www.w3.org/2000/svg" viewBox="0 0 17.34766 5.67329"><title>hero-smiley-mouth2a</title><path d="M12.99774,1.66461a4.736,4.736,0,0,1-2.2359.8161,12.90131,12.90131,0,0,1-2.81226.09906A17.21326,17.21326,0,0,1,2.36664,1.20209C1.92,1.02,1.48706.79852,1.05206.58875L.41266.24316.10657.07532,0,0V3.682c.314.14538.62988.28778.95422.41473a20.85348,20.85348,0,0,0,6.78705,1.55,16.45533,16.45533,0,0,0,3.58533-.18836,9.55309,9.55309,0,0,0,1.87744-.483,7.874,7.874,0,0,0,.93549-.43823,7.87528,7.87528,0,0,0,.81311-.50995,14.08113,14.08113,0,0,0,2.395-2.39984H13.03845C13.024,1.63885,13.01227,1.6532,12.99774,1.66461Z" style="fill:#231f20"/></svg>