<svg xmlns="http://www.w3.org/2000/svg" viewBox="0 0 302 572"><title>hero-arm-ul-base</title><path d="M5.80965,554.90337,58.153,496.09886s11.52133-2.03469,5.99778,6.70062c-6.33457,10.01791-49.54651,59.2826-49.54651,59.2826Z" style="fill:#fff;fill-rule:evenodd"/><path d="M254.22864,108.70808c.266-3.478.817-6.887,1.413-6.854.563.022.962,4.88.91,9.05-.058,4.731-.496,9.375-1.177,9.644-.894.349-1.012-5.627-1.146-11.84" style="fill:#020f14;fill-rule:evenodd"/><path d="M246.09835,108.70808c.267-3.478.817-6.887,1.413-6.854.563.022.962,4.88.91,9.05-.058,4.731-.496,9.375-1.177,9.644-.894.349-1.012-5.627-1.146-11.84" style="fill:#020f14;fill-rule:evenodd"/><path d="M237.96845,108.70808c.266-3.478.817-6.887,1.413-6.854.563.022.962,4.88.91,9.05-.058,4.731-.496,9.375-1.177,9.644-.894.349-1.012-5.627-1.146-11.84" style="fill:#020f14;fill-rule:evenodd"/><path d="M229.83805,108.70808c.267-3.478.817-6.887,1.413-6.854.563.022.962,4.88.91,9.05-.058,4.731-.496,9.375-1.177,9.644-.894.349-1.012-5.627-1.146-11.84" style="fill:#020f14;fill-rule:evenodd"/><path d="M221.70815,108.70808c.266-3.478.817-6.887,1.413-6.854.563.022.962,4.88.91,9.05-.058,4.731-.496,9.375-1.177,9.644-.894.349-1.012-5.627-1.146-11.84" style="fill:#020f14;fill-rule:evenodd"/><path d="M179.00405,150.484c-3.479-.266-6.887-.817-6.854-1.413.022-.563,4.88-.962,9.05-.91,4.731.058,9.375.496,9.644,1.177.349.894-5.627,1.012-11.84,1.146" style="fill:#020f14;fill-rule:evenodd"/><path d="M179.00405,158.61428c-3.479-.267-6.887-.817-6.854-1.413.022-.563,4.88-.962,9.05-.91,4.731.058,9.375.496,9.644,1.177.349.894-5.627,1.012-11.84,1.146" style="fill:#020f14;fill-rule:evenodd"/><path d="M179.00405,166.74418c-3.479-.266-6.887-.817-6.854-1.413.022-.563,4.88-.962,9.05-.91,4.731.058,9.375.496,9.644,1.177.349.894-5.627,1.012-11.84,1.146" style="fill:#020f14;fill-rule:evenodd"/><path d="M179.00405,174.87458c-3.479-.267-6.887-.817-6.854-1.413.022-.563,4.88-.962,9.05-.91,4.731.058,9.375.496,9.644,1.177.349.894-5.627,1.012-11.84,1.146" style="fill:#020f14;fill-rule:evenodd"/><path d="M179.00405,183.00448c-3.479-.266-6.887-.817-6.854-1.412.022-.564,4.88-.962,9.05-.911,4.731.058,9.375.496,9.644,1.177.349.894-5.627,1.012-11.84,1.146" style="fill:#020f14;fill-rule:evenodd"/><path d="M179.00405,212.29548c-3.479-.267-6.887-.817-6.854-1.413.022-.563,4.88-.962,9.05-.91,4.731.058,9.375.496,9.644,1.177.349.894-5.627,1.012-11.84,1.146" style="fill:#020f14;fill-rule:evenodd"/><path d="M179.00405,220.42588c-3.479-.267-6.887-.817-6.854-1.413.022-.563,4.88-.962,9.05-.91,4.731.058,9.375.496,9.644,1.177.349.894-5.627,1.012-11.84,1.146" style="fill:#020f14;fill-rule:evenodd"/><path d="M179.00405,228.55568c-3.479-.266-6.887-.817-6.854-1.413.022-.563,4.88-.962,9.05-.91,4.731.058,9.375.496,9.644,1.177.349.894-5.627,1.012-11.84,1.146" style="fill:#020f14;fill-rule:evenodd"/><path d="M179.00405,236.68609c-3.479-.267-6.887-.817-6.854-1.413.022-.563,4.88-.962,9.05-.91,4.731.058,9.375.496,9.644,1.177.349.894-5.627,1.012-11.84,1.146" style="fill:#020f14;fill-rule:evenodd"/><path d="M179.00405,244.816c-3.479-.266-6.887-.817-6.854-1.413.022-.563,4.88-.961,9.05-.91,4.731.058,9.375.496,9.644,1.177.349.894-5.627,1.012-11.84,1.146" style="fill:#020f14;fill-rule:evenodd"/><path d="M293.14375,42.11088c3.478.4,6.887,1.226,6.854,2.119-.022.845-4.88,1.443-9.05,1.366-4.731-.088-9.375-.744-9.644-1.765-.349-1.341,5.627-1.518,11.84-1.72" style="fill:#020f14;fill-rule:evenodd"/><path d="M293.14375,50.24128c3.478.4,6.887,1.226,6.854,2.119-.022.845-4.88,1.443-9.05,1.366-4.731-.088-9.375-.745-9.644-1.766-.349-1.341,5.627-1.518,11.84-1.719" style="fill:#020f14;fill-rule:evenodd"/><path d="M293.14375,58.37168c3.478.399,6.887,1.226,6.854,2.119-.022.845-4.88,1.443-9.05,1.365-4.731-.087-9.375-.744-9.644-1.765-.349-1.341,5.627-1.518,11.84-1.719" style="fill:#020f14;fill-rule:evenodd"/><path d="M293.14375,66.50148c3.478.399,6.887,1.226,6.854,2.119-.022.845-4.88,1.443-9.05,1.366-4.731-.088-9.375-.745-9.644-1.765-.349-1.341,5.627-1.519,11.84-1.72" style="fill:#020f14;fill-rule:evenodd"/><path d="M293.14375,74.63188c3.478.399,6.887,1.226,6.854,2.119-.022.845-4.88,1.443-9.05,1.366-4.731-.088-9.375-.745-9.644-1.766-.349-1.341,5.627-1.518,11.84-1.719" style="fill:#020f14;fill-rule:evenodd"/><path d="M179.24085,302.61629c-2.914,0-2.914-4.507,0-4.507s2.914,4.507,0,4.507" style="fill:#020f14;fill-rule:evenodd"/><path d="M177.64765,310.89507c-2.061-2.061,1.126-5.248,3.187-3.187s-1.127,5.248-3.187,3.187" style="fill:#020f14;fill-rule:evenodd"/><path d="M177.64765,319.8341c-2.061-2.061,1.126-5.248,3.187-3.187s-1.127,5.248-3.187,3.187" style="fill:#020f14;fill-rule:evenodd"/><path d="M180.84194,414.91268c3.478.267,6.887.817,6.854,1.413-.022.563-4.88.962-9.05.91-4.731-.058-9.375-.496-9.644-1.177-.349-.894,5.627-1.012,11.84-1.146" style="fill:#020f14;fill-rule:evenodd"/><path d="M180.84194,406.7828c3.479.266,6.887.817,6.854,1.413-.022.563-4.88.962-9.05.91-4.731-.058-9.375-.496-9.644-1.177-.349-.894,5.627-1.012,11.84-1.146" style="fill:#020f14;fill-rule:evenodd"/><path d="M180.84194,398.65239c3.479.267,6.887.817,6.854,1.413-.022.563-4.88.962-9.05.91-4.731-.058-9.375-.496-9.644-1.177-.349-.894,5.627-1.012,11.84-1.146" style="fill:#020f14;fill-rule:evenodd"/><path d="M180.84194,390.52248c3.479.266,6.887.817,6.854,1.413-.022.563-4.88.962-9.05.91-4.731-.058-9.375-.496-9.644-1.177-.349-.894,5.627-1.012,11.84-1.146" style="fill:#020f14;fill-rule:evenodd"/><path d="M180.84194,382.39217c3.479.267,6.887.817,6.854,1.413-.022.563-4.88.962-9.05.91-4.731-.058-9.375-.496-9.644-1.177-.349-.894,5.627-1.012,11.84-1.146" style="fill:#020f14;fill-rule:evenodd"/><path d="M189.283,418.74038v-273.052a26.13128,26.13128,0,0,1,26.082-25.132h39.83a44.85347,44.85347,0,0,0,44.803-44.802V1.08313" style="fill:none;stroke:#020f14;stroke-linecap:round;stroke-linejoin:round;stroke-width:2.70000004768372px"/><path d="M281.29505,1.08313V75.75438a26.13179,26.13179,0,0,1-25.131,26.082l-.969.018h-39.83a44.85263,44.85263,0,0,0-44.802,44.802v273.052" style="fill:none;stroke:#020f14;stroke-linecap:round;stroke-linejoin:round;stroke-width:2.70000004768372px"/><path d="M102.98359,463.54339H144.481a44.85347,44.85347,0,0,0,44.802-44.803" style="fill:none;stroke:#020f14;stroke-linecap:round;stroke-linejoin:round;stroke-width:2.70000004768372px"/><path d="M170.563,419.70839a26.132,26.132,0,0,1-26.082,25.132v-.018H102.98359" style="fill:none;stroke:#020f14;stroke-linecap:round;stroke-linejoin:round;stroke-width:2.70000004768372px"/><path d="M128.67445,454.50148c0-2.914,4.507-2.914,4.507,0s-4.507,2.914-4.507,0" style="fill:#020f14;fill-rule:evenodd"/><path d="M120.39564,452.9078c2.061-2.06,5.248,1.127,3.187,3.188-2.06,2.06-5.248-1.127-3.187-3.188" style="fill:#020f14;fill-rule:evenodd"/><path d="M111.45675,452.9078c2.061-2.06,5.248,1.127,3.188,3.188-2.061,2.06-5.249-1.127-3.188-3.188" style="fill:#020f14;fill-rule:evenodd"/></svg>