<svg xmlns="http://www.w3.org/2000/svg" viewBox="0 0 8.84954 19.69311"><title>hero-smiley-mouth3a</title><path d="M8.16663,7.49761A24.66189,24.66189,0,0,0,8.8457,1.29583a1.45042,1.45042,0,0,0-2.88885.05084v.02051A22.30009,22.30009,0,0,1,5.23413,6.9038a25.05863,25.05863,0,0,1-1.94525,5.30982,11.35609,11.35609,0,0,1-2.1471,3.12219,11.34457,11.34457,0,0,1-1.08715.99652,4.88717,4.88717,0,0,0,4.30652,0,23.67311,23.67311,0,0,0,1.75646-2.91955A27.696,27.696,0,0,0,8.16663,7.49761Z" style="fill:#231f20"/></svg>