<?xml version="1.0" encoding="utf-8"?>
<!-- Generator: Adobe Illustrator 24.0.3, SVG Export Plug-In . SVG Version: 6.00 Build 0)  -->
<svg version="1.1" id="Layer_1" xmlns="http://www.w3.org/2000/svg" xmlns:xlink="http://www.w3.org/1999/xlink" x="0px" y="0px"
	 viewBox="0 0 315.9 385.4" style="enable-background:new 0 0 315.9 385.4;" xml:space="preserve">
<style type="text/css">
	.st0{fill-rule:evenodd;clip-rule:evenodd;fill:#F5F6F0;}
	.st1{fill-rule:evenodd;clip-rule:evenodd;fill:#020F14;}
	.st2{fill-rule:evenodd;clip-rule:evenodd;fill:#FFFFFF;filter:url(#Adobe_OpacityMaskFilter);}
	.st3{mask:url(#a_1_);}
</style>
<path class="st0" d="M295,1.4l19,0.2c0,0,1.1,39.8-41.5,44.8c-43.2,2.1-156.1,0-156.1,0S93.7,47.2,92,71.2c-1.7,24,0,103.8,0,103.8
	H73.4V71.4c0,0,1.3-42.2,44.7-43.2s154.2,0,154.2,0S297.4,21.9,295,1.4z"/>
<title>home-hero-arm-side</title>
<path class="st1" d="M81.6,76.4c-3.5-0.3-6.9-0.8-6.9-1.4c0-0.6,4.9-1,9.1-0.9c4.7,0.1,9.4,0.5,9.6,1.2
	C93.8,76.1,87.8,76.3,81.6,76.4"/>
<path class="st1" d="M81.6,84.5c-3.5-0.3-6.9-0.8-6.9-1.4c0-0.6,4.9-1,9.1-0.9c4.7,0.1,9.4,0.5,9.6,1.2
	C93.8,84.3,87.8,84.4,81.6,84.5"/>
<path class="st1" d="M81.6,92.6c-3.5-0.3-6.9-0.8-6.9-1.4c0-0.6,4.9-1,9.1-0.9c4.7,0.1,9.4,0.5,9.6,1.2
	C93.8,92.4,87.8,92.5,81.6,92.6"/>
<path class="st1" d="M81.6,100.8c-3.5-0.3-6.9-0.8-6.9-1.4c0-0.6,4.9-1,9.1-0.9c4.7,0.1,9.4,0.5,9.6,1.2
	C93.8,100.5,87.8,100.6,81.6,100.8"/>
<path class="st1" d="M81.6,108.9c-3.5-0.3-6.9-0.8-6.9-1.4c0-0.6,4.9-1,9.1-0.9c4.7,0.1,9.4,0.5,9.6,1.2
	C93.8,108.7,87.8,108.8,81.6,108.9"/>
<path class="st1" d="M267.9,38c-0.3,3.5-0.8,6.9-1.4,6.9c-0.6,0-1-4.9-0.9-9c0.1-4.7,0.5-9.4,1.2-9.6
	C267.6,25.8,267.8,31.8,267.9,38"/>
<path class="st1" d="M259.8,38c-0.3,3.5-0.8,6.9-1.4,6.9c-0.6,0-1-4.9-0.9-9c0.1-4.7,0.5-9.4,1.2-9.6
	C259.5,25.8,259.6,31.8,259.8,38"/>
<path class="st1" d="M251.6,38c-0.3,3.5-0.8,6.9-1.4,6.9c-0.6,0-1-4.9-0.9-9c0.1-4.7,0.5-9.4,1.2-9.6
	C251.4,25.8,251.5,31.8,251.6,38"/>
<path class="st1" d="M243.5,38c-0.3,3.5-0.8,6.9-1.4,6.9c-0.6,0-1-4.9-0.9-9c0.1-4.7,0.5-9.4,1.2-9.6
	C243.3,25.8,243.4,31.8,243.5,38"/>
<path class="st1" d="M235.4,38c-0.3,3.5-0.8,6.9-1.4,6.9c-0.6,0-1-4.9-0.9-9c0.1-4.7,0.5-9.4,1.2-9.6
	C235.1,25.8,235.2,31.8,235.4,38"/>
<path class="st1" d="M167.4,37.8c0,2.9-4.5,2.9-4.5,0S167.4,34.9,167.4,37.8"/>
<path class="st1" d="M175.6,39.4c-2.1,2.1-5.2-1.1-3.2-3.2C174.5,34.1,177.7,37.3,175.6,39.4"/>
<path class="st1" d="M184.6,39.4c-2.1,2.1-5.2-1.1-3.2-3.2S186.6,37.3,184.6,39.4"/>
<defs>
	<filter id="Adobe_OpacityMaskFilter" filterUnits="userSpaceOnUse" x="0" y="332.4" width="45.7" height="53.1">
		<feColorMatrix  type="matrix" values="1 0 0 0 0  0 1 0 0 0  0 0 1 0 0  0 0 0 1 0"/>
	</filter>
</defs>
<mask maskUnits="userSpaceOnUse" x="0" y="332.4" width="45.7" height="53.1" id="a_1_">
	<polygon class="st2" points="0,332.4 45.7,332.4 45.7,385.4 0,385.4 	"/>
</mask>
<g class="st3">
	<path class="st1" d="M20.2,374.4c1.3,1.1,2.8,2.1,4.2,3c0.7,0.5,1.4,0.9,2.2,1.3c0.7,0.4,1.5,0.8,2.2,1.2c1.5,0.6,2.9,1.3,4.3,1.8
		c1.4,0.4,2.8,0.9,4,1.3c1.3,0.3,2.4,0.6,3.5,0.8c1,0.3,2,0.3,2.7,0.5c1.5,0.3,2.4,0.5,2.3,0.8c0,0.3-5.3,1-12.6-0.8
		c-0.5-0.1-0.9-0.2-1.4-0.3c-0.5-0.2-0.9-0.3-1.4-0.5c-0.9-0.3-1.9-0.6-2.9-1c-4.1-1.7-8-4-11.5-6.8c-0.9-0.8-1.7-1.5-2.6-2.3
		l-0.6-0.6l-0.6-0.6c-0.4-0.4-0.8-0.8-1.1-1.3c-3.3-3.7-6-8-7.9-12.6C2.7,357.2,2.4,356,2,355c-0.2-0.5-0.4-1.1-0.5-1.6
		c-0.1-0.5-0.2-1.1-0.4-1.6c-0.2-1.1-0.5-2.1-0.6-3.1c-0.1-1-0.2-2-0.3-3C0,344.7,0,343.8,0,342.9c0-0.9,0-1.7,0-2.5
		c0-1.6,0.2-2.9,0.3-4c0.2-2.3,0.4-3.7,0.7-4c0.3-0.4,0.6,0.9,0.8,3.5c0.1,1.3,0.2,2.9,0.3,4.7c0.1,2,0.4,4,0.7,6
		C4.8,357.8,11,367.7,20.2,374.4"/>
</g>
<path class="st1" d="M83.5,336c3.5,0.3,6.9,0.8,6.9,1.4c0,0.6-4.9,1-9.1,0.9c-4.7-0.1-9.4-0.5-9.6-1.2
	C71.3,336.3,77.3,336.2,83.5,336"/>
<path class="st1" d="M83.5,327.9c3.5,0.3,6.9,0.8,6.9,1.4c0,0.6-4.9,1-9.1,0.9c-4.7-0.1-9.4-0.5-9.6-1.2
	C71.3,328.2,77.3,328,83.5,327.9"/>
<path class="st1" d="M83.5,319.8c3.5,0.3,6.9,0.8,6.9,1.4c0,0.6-4.9,1-9.1,0.9c-4.7-0.1-9.4-0.5-9.6-1.2
	C71.3,320,77.3,319.9,83.5,319.8"/>
<path class="st1" d="M83.5,311.6c3.5,0.3,6.9,0.8,6.9,1.4c0,0.6-4.9,1-9.1,0.9c-4.7-0.1-9.4-0.5-9.6-1.2
	C71.3,311.9,77.3,311.8,83.5,311.6"/>
<path class="st1" d="M83.5,303.5c3.5,0.3,6.9,0.8,6.9,1.4c0,0.6-4.9,1-9.1,0.9c-4.7-0.1-9.4-0.5-9.6-1.2
	C71.3,303.8,77.3,303.7,83.5,303.5"/>
<path class="st1" d="M193.8,48.2c-13,0-25.9,0-38.6-0.1c-6.4,0-12.6,0-18.9,0c-3.1,0-6.2,0-9.2,0c-1.5,0-3.1,0-4.6,0
	c-0.8,0-1.5,0-2.3,0l-1.1,0l-0.6,0l-0.3,0H118c-0.7-0.7,1.6,1.6-1.6-1.6v0l1.6,1.6c-12.3,0-22.8,9.2-24.4,21.4l-0.2,2.2l0,2.3
	c0,1.5,0,3.1,0,4.6c0,3.1,0,6.2,0,9.2c0,6.1,0,12.3,0,18.3c-0.1,24.3-0.1,47.8-0.2,70.4c-0.2,45.1-0.3,86.3-0.5,121.1
	c0,8.7-0.1,17-0.1,24.8c0,3.9,0,7.7-0.1,11.5c0,1.9,0,3.7,0,5.5c-0.1,1.8-0.2,3.6-0.3,5.3c-1.4,12.1-7.6,23-17.2,30.5
	c-3.4,2.7-7.2,4.8-11.3,6.4c-0.9,0.3-1.7,0.6-2.6,0.9c-0.8,0.3-1.6,0.5-2.4,0.6c-0.8,0.2-1.5,0.4-2.2,0.5c-0.7,0.2-1.4,0.2-2,0.3
	c-1.3,0.1-2.3,0.4-3.3,0.4c-0.9,0-1.7,0-2.4,0c-1.2,0-1.8,0-1.7-0.1c0.7-0.1,1.4-0.2,2.2-0.2c0.7-0.1,1.5-0.1,2.5-0.2
	c1-0.2,2.1-0.4,3.4-0.6c0.7-0.1,1.4-0.3,2-0.5c0.7-0.2,1.4-0.4,2.2-0.6c0.8-0.2,1.6-0.5,2.4-0.8c0.8-0.3,1.7-0.6,2.5-1
	c3.9-1.8,7.6-4.1,10.9-6.8c4.1-3.5,7.5-7.6,10.1-12.3c0.4-0.6,0.7-1.3,1-2c0.3-0.7,0.6-1.4,1-2c0.6-1.4,1.1-2.9,1.6-4.4
	c0.4-1.5,0.8-3.1,1.2-4.7c0.1-0.8,0.2-1.6,0.4-2.4c0.2-0.8,0.2-1.7,0.3-2.5c0.2-3.3,0.1-7,0.1-10.6c0-3.7,0-7.5,0-11.4
	c0-7.8-0.1-16.1-0.1-24.7c-0.1-34.6-0.2-75.5-0.3-120.4c0-22.5-0.1-45.9-0.1-70.2c0-6.1,0-12.1,0-18.3c0-3.1,0-6.1,0-9.2
	c0-1.5,0-3.1,0-4.6l0-2.3l0.2-2.5C92.3,55.2,104,44.9,118,44.8c0.1,0,0.2,0,0.2,0.1l1.4,1.6c0.4,0.4-3.1-3.1-1.6-1.6l0.1,0h0.7
	l0.8,0l1.7,0l3.4,0l6.8,0c4.5,0,9.1,0,13.6,0c9.1,0,18.3,0,27.5,0c18.4,0,37,0,55.6,0c9.3,0,18.6,0,27.9,0c4.6,0,9.3,0,13.9,0
	l3.3-0.2c1.1-0.1,2.2-0.3,3.3-0.5c0.5-0.1,1.1-0.1,1.6-0.3l1.6-0.4c1.1-0.2,2.2-0.6,3.2-0.9c4.2-1.4,8.2-3.5,11.8-6.2
	c1.8-1.3,3.5-2.8,5.1-4.3l2.2-2.5c0.7-0.8,1.3-1.8,2-2.6c2.6-3.6,4.6-7.6,6-11.8c1.3-4.2,2.1-8.6,2.1-13c0-0.1,0-0.3,0-0.4l-0.1,1.7
	c-6.4,0-9.3,0-15.2,0l0.1-1.7c0,5.9-1.9,11.6-5.4,16.4c-1.7,2.4-3.8,4.4-6.2,6.2c-2.4,1.7-5,3-7.8,3.9l-2.1,0.6l-2.1,0.4
	c-0.7,0.1-1.5,0.2-2.2,0.2l-1.1,0.1h-1c-2.7,0-5.5,0-8.2,0l-16.3,0c-21.7,0-43.3,0-64.6,0c-21.3,0-42.3,0-62.9,0
	c-9.9,0.2-19.5,3.7-27.1,10.1c-7.4,6.3-12.6,14.8-14.6,24.3c-0.2,1.2-0.4,2.4-0.5,3.5c0,0.3-0.1,0.6-0.1,0.9l0,0.9l-0.1,1.8
	l-0.1,1.8l0,1.8c0,1.2,0,2.4,0,3.7c0,4.9,0,9.7,0,14.5c0,9.6,0,19,0,28.4c0,18.6-0.1,36.6-0.1,53.9c-0.1,34.6-0.2,66.2-0.3,94.1
	l-1.8,0.8l1.8-0.8c-0.1,23.8-0.2,45.3-0.2,64.3c0,2.4,0,4.7,0,7c0,0.6,0,1.2-0.1,1.8c-0.1,0.6-0.1,1.2-0.2,1.7
	c-0.5,3.4-1.7,6.6-3.4,9.5c-0.3,0.5-0.6,0.9-0.9,1.4l-0.4,0.7l-0.5,0.6c-0.3,0.4-0.7,0.8-1,1.3c-0.4,0.4-0.7,0.8-1.1,1.2
	c-2.8,2.9-6.3,5.2-10.1,6.5c-0.5,0.2-0.9,0.3-1.4,0.5c-0.5,0.1-0.9,0.2-1.4,0.3c-0.5,0.1-0.9,0.2-1.4,0.3c-0.5,0.1-0.9,0.1-1.4,0.2
	c-0.9,0.1-1.8,0.2-2.7,0.2c-0.9,0.1-1.8,0.1-2.6,0c-3.3,0-6.6-0.7-9.7-2c-2.7-1.1-5.3-2.7-7.5-4.7c-2-1.7-3.6-3.7-5-5.9
	c-0.6-1-1.2-2-1.6-3.1c-0.2-0.5-0.4-1-0.6-1.5c-0.2-0.5-0.4-1-0.5-1.5c-0.9-3.2-1.3-6.5-1.1-9.7c0.1-2.5,0.1-4.2,0.2-5.2
	c0.1-2.4,0.3-0.3,0.4,6c0,1.8,0.1,3.6,0.5,5.3l0.3,1.5c0.2,0.5,0.3,1,0.5,1.6c0.1,0.3,0.2,0.5,0.2,0.8c0.1,0.3,0.2,0.5,0.3,0.8
	c0.2,0.5,0.4,1.1,0.7,1.7c4.2,8.8,13.1,14.5,22.9,14.5c0.5,0,1,0,1.5,0c0.5,0,1-0.1,1.5-0.1c1,0,2-0.2,3-0.3c0.5-0.1,1-0.2,1.5-0.3
	c0.5-0.1,1-0.3,1.5-0.4c0.5-0.2,1-0.4,1.5-0.5l0.7-0.3l0.7-0.3c0.5-0.2,1-0.5,1.4-0.7c0.5-0.3,0.9-0.6,1.4-0.8l0.7-0.4l0.7-0.5
	c0.4-0.3,0.9-0.6,1.3-1c1.7-1.5,3.3-3.1,4.6-5c2.8-4,4.4-8.7,4.6-13.5c-0.1-20.9-0.1-45-0.2-72l2-0.9l-2,0.9
	c-0.1-28.4-0.1-60.1-0.2-94.4c0-17.2,0-35-0.1-53.4c0-9.2,0-18.6,0-28.1c0-4.7,0-9.5,0-14.3c0-1.2,0-2.4,0-3.6c0-1.2,0-2.4,0.1-3.7
	c0.1-1.2,0.1-2.5,0.2-3.8c0.2-1.2,0.4-2.5,0.6-3.7c1.9-10.1,7.2-19.3,14.9-26.1c3.9-3.4,8.4-6.2,13.2-8.2c4.9-2,10.1-3.1,15.4-3.3
	l2-0.1l1.9,0l3.9,0l7.7,0c5.2,0,10.4,0,15.6,0c10.5,0,21,0,31.7,0c21.3,0,42.9,0,64.9,0c5.5,0,11,0,16.5,0c2.8,0,5.5,0,8.3,0
	c0.7,0,1.4,0,2.1,0l1.9-0.2c1.3-0.2,2.6-0.4,3.8-0.8c2.5-0.7,4.9-1.9,7-3.3c2.1-1.5,4-3.3,5.6-5.4c3.2-4.2,4.9-9.4,4.9-14.7l0,0
	c0-0.9,0.8-1.6,1.7-1.6c6,0,12.3,0,18.7,0c0.9,0,1.7,0.7,1.7,1.7v0c0,6.3-1.3,12.4-3.7,18.2c-2.5,5.8-6.1,11-10.6,15.3
	c-4.6,4.4-9.9,7.8-15.8,10l-2.2,0.8c-0.7,0.2-1.5,0.4-2.3,0.6l-2.3,0.6c-0.8,0.2-1.6,0.2-2.3,0.4l-2.3,0.4l-2.4,0.1l-2.4,0.1l-2.3,0
	C242.8,48.2,218.4,48.2,193.8,48.2"/>
</svg>
