<svg xmlns="http://www.w3.org/2000/svg" viewBox="0 0 19.87036 22.82788"><title>hero-heart-piece3</title><path d="M19.75659,2.383a3.22282,3.22282,0,0,0-.494-1.06128c-.963-.90015-.53033-.61945-.87725-.84394A3.86355,3.86355,0,0,0,17.39819,0L16.01086,2.58716l.95508.375c.02106.04065.03906.08111.066.14758a3.43939,3.43939,0,0,1-.28686,1.88788A17.73273,17.73273,0,0,1,14.0556,9.4494,38.33461,38.33461,0,0,1,10.382,13.45532,35.67138,35.67138,0,0,1,6.1861,16.89954a16.49185,16.49185,0,0,1-4.59021,2.367A.86161.86161,0,0,1,.853,19.165L0,22.82788a3.07625,3.07625,0,0,0,.55566-.12445C1.256,22.49786,1.93127,22.149,2.405,22.01A19.1625,19.1625,0,0,0,7.8382,19.18835a38.53049,38.53049,0,0,0,4.499-3.75836,30.96231,30.96231,0,0,0,7.00891-9.4696A5.87809,5.87809,0,0,0,19.75659,2.383Z" style="fill:#231f20"/></svg>