<svg xmlns="http://www.w3.org/2000/svg" viewBox="0 0 11.40599 15.56765"><title>hero-heart-piece1</title><path d="M11.39563,14.51724a21.25446,21.25446,0,0,0-.6023-3.83307l-.04351-.02869q-.39057-1.41879-.918-2.82159A17.05531,17.05531,0,0,0,6.67462,2.34548,9.12808,9.12808,0,0,0,5.2887,1.128,6.95472,6.95472,0,0,0,4.40155.63284a3.70579,3.70579,0,0,0-.97687-.3866C3.07013.15939,2.70966.08267,2.35065.019A6.05184,6.05184,0,0,0,1.265.03054,4.34707,4.34707,0,0,0,0,.24258L1.47205,4.18911c.037-.00262.07879-.00555.1416-.0108.10882.00293.22357-.05792.331-.03473a1.36505,1.36505,0,0,0,.31482.06372c.10889-.01739.2207.07672.33545.12738a2.37362,2.37362,0,0,1,.35748.17371,4.90144,4.90144,0,0,1,.74152.62835,13.74674,13.74674,0,0,1,2.5849,4.09858c.3501.79766.66937,1.62146.94891,2.46258.1471.41986.28687.84113.41638,1.26679l.1883.637.08825.31421.0412.15777a2.16608,2.16608,0,0,0,.35309.78034,1.99739,1.99739,0,0,0,.98132.69055l.00007-.00006a2.02017,2.02017,0,0,0,1.20489-.18817,2.05355,2.05355,0,0,0,.65326-.53424" style="fill:#231f20"/></svg>