<svg xmlns="http://www.w3.org/2000/svg" viewBox="0 0 11.96841 26.75242"><title>hero-heart-piece2</title><path d="M11.76528,22.87793c-.22949-.2345-.37665-.4184-.61938-.47339a4.4478,4.4478,0,0,1-1.53009-1.08,14.84851,14.84851,0,0,1-2.67615-4.045A26.30418,26.30418,0,0,1,4.42391,7.38422a10.26594,10.26594,0,0,1,.153-2.26715A2.09267,2.09267,0,0,1,5.0668,3.99219c.01739-.0365.00921-.03583.14679-.04566,0,0,.3992-3.69839-1.472-3.94653A4.83974,4.83974,0,0,0,2.629.5437,5.14226,5.14226,0,0,0,1.02383,2.34033c-.1427.304-.2898.61676-.41046.92365l-.2707.89038a14.19091,14.19091,0,0,0-.3413,3.29651,24.58809,24.58809,0,0,0,.85186,6.03265A31.00554,31.00554,0,0,0,2.8879,19.15a19.09581,19.09581,0,0,0,3.53821,5.26837,8.83035,8.83035,0,0,0,3.09845,2.09632,3.07845,3.07845,0,0,0,1.59082.2113l.853-3.6629A.85821.85821,0,0,1,11.76528,22.87793Z" style="fill:#231f20"/></svg>