<svg xmlns="http://www.w3.org/2000/svg" viewBox="0 0 53.45106 52.65"><title>logo-dot</title><path d="M33.01566,51.54342c-.50712-.11972-1.2226-.46191-1.44867-.268-3.5348,3.35222-7.3932-.63434-11.0867.55486-.954.31091-2.35386-.47443-3.4488-.964A36.13824,36.13824,0,0,1,3.7567,40.51917a8.39519,8.39519,0,0,1-1.62687-3.27449C1.323,33.62715.61377,29.96757.04459,26.30084a8.14,8.14,0,0,1,.44684-3.63633c1.77316-5.13286,3.34507-10.3774,7.215-14.45331a8.39006,8.39006,0,0,0,1.6579-2.42482,3.66219,3.66219,0,0,1,3.94352-2.48646c2.22531.01876,2.69609-3.63812,5.38066-3.27449,2.165.31093,4.5987,1.61089,6.46938,1.01942,3.96213-1.27583,6.347,2.323,9.65576,2.34709,2.06041.00983,3.41157,1.67346,5.58191,1.64574,2.55691-.00626,2.65443.47173,2.76436,3.74711.02394,1.51887.55058,2.36585,1.94428,2.63746,2.17744.42525,3.54721,1.53941,3.69349,3.91867a1.24541,1.24541,0,0,0,.20747.70227c6.67773,5.76542,4.09688,13.25787,3.2041,20.09811-.73232,5.66-5.17232,9.43749-9.61764,12.52168a16.84816,16.84816,0,0,1-9.576,2.88047" style="fill:#ff5037;fill-rule:evenodd"/></svg>