<svg xmlns="http://www.w3.org/2000/svg" viewBox="0 0 16.10913 17.05463"><title>logo-h1</title><path d="M15.14172,9.44782a5.18289,5.18289,0,0,1-2.14148,3.06237,5.08172,5.08172,0,0,1-.7129-1.32544c-.24719-1.35244-.41667-2.72-.55351-4.087-.15712-1.56814-.16444-3.15354-.39081-4.71035A2.73,2.73,0,0,0,8.84173.01368,2.97678,2.97678,0,0,0,5.86741,1.70205C4.6269,4.27157,3.42411,6.85888,2.22414,9.44674c-.63351,1.36539-1.22983,2.747-1.843,4.12094l-.12641-.0311L0,17.05463a1.73888,1.73888,0,0,0,.71389-.98482c.88406-1.91861,1.64764-3.88794,2.50243-5.81955.81989-1.85236,1.66736-3.69439,2.561-5.51437.14807-.30142.59746-.46754.90769-.6956.22529.31.58224.5948.65437.935.3429,1.61615.61546,3.24574.89983,4.8732a13.11476,13.11476,0,0,0,1.56824,4.94059,2.11441,2.11441,0,0,0,3.34762.55163,9.50251,9.50251,0,0,0,1.387-1.6291c.35754-.48153.63969-1.01482,1.00286-1.6021l.56424-5.52623A28.99924,28.99924,0,0,0,15.14172,9.44782Z" style="fill:#fff"/></svg>