<svg xmlns="http://www.w3.org/2000/svg" viewBox="0 0 4.94672 28.36779"><title>logo-h2</title><path d="M3.48447,24.51831c.13235-1.24946.286-2.49783.393-3.74941.24947-2.91841.53552-5.83523.69713-8.759.18752-3.3811.27142-6.76813.37054-10.15407C4.98231.58213,4.34658-.06122,3.02331.00459A24.35062,24.35062,0,0,0,.19879.43327C.12048.54436.07826.60368,0,.71477a5.16289,5.16289,0,0,1,.21906.89469c.04672,2.91247.10471,5.82494.09967,8.738C.31028,15.60782.259,20.86871.22915,26.12852a2.003,2.003,0,0,0,1.50016,2.12576q.07927.0301.16127.0525a1.74234,1.74234,0,0,0,1.44029-.24546l.2547-3.518Z" style="fill:#fff"/></svg>