<svg xmlns="http://www.w3.org/2000/svg" viewBox="0 0 61.98669 45.74649"><title>plane-white</title><polygon points="15.856 43.845 14.848 22.277 27.763 33.426 15.856 43.845" style="fill:#fff"/><polygon points="1.264 12.578 39.651 41.196 60.693 1.297 1.264 12.578" style="fill:#fff"/><path d="M2.52762,12.869,21.67471,26.44c6.30081,4.49937,12.51023,9.06027,18.7511,13.71629l-1.92224.43474c1.41483-3.50353,2.962-6.93727,4.60687-10.31948,1.6558-3.37645,3.35623-6.72935,5.14377-10.03631Q50.907,15.25966,53.709,10.3629,56.51,5.46557,59.54587.69211l1.389,1.87912c-9.714,1.84659-19.35806,3.62142-29.0574,5.30091ZM0,12.28646,30.07935,6.00264C40.18976,3.92192,50.35538,1.93651,60.45114.02288a1.29446,1.29446,0,0,1,1.43192,1.77887l-.04285.10038q-2.21415,5.20682-4.6843,10.27864Q54.71,17.26534,52.0896,22.25794c-1.71951,3.34283-3.52615,6.63974-5.37738,9.9131-1.86218,3.26761-3.82208,6.48367-5.91428,9.63l-.076.11436a1.29112,1.29112,0,0,1-1.79.36019l-.05642-.03975c-6.55475-4.88341-13.14093-9.86194-19.63574-14.902Z" style="fill:#020f14"/><path d="M28.89618,34.96871a74.14848,74.14848,0,0,1-6.00144,5.38554q-3.07671,2.6037-6.26022,5.08238l-.04584.03574a1.29615,1.29615,0,0,1-2.09152-.95518l-1.0824-20.93348a1.29695,1.29695,0,0,1,2.59043-.13394l1.08236,20.93347-2.1372-.91937q2.94937-2.75292,6.00143-5.38553A74.14276,74.14276,0,0,1,27.212,32.996a1.30353,1.30353,0,0,1,1.68414,1.97275Z" style="fill:#020f14"/><path d="M26.08422,16.7266c3.33084-1.66052,6.98183-3.41211,10.947-5.52771,6.70036-3.57507,12.13843-5.62817,17.64328-7.95856,7.4362-3.148,6.77174-2.25427,4.2588-.41632-2.74089,2.00574-8.614,5.08521-16.1036,8.73761a85.95375,85.95375,0,0,1-13.514,5.62457A52.25246,52.25246,0,0,0,19.5572,21.2551c-2.5817,1.28022-3.81473,1.653-3.44335,1.33a22.02672,22.02672,0,0,1,4.12325-1.988,30.65429,30.65429,0,0,0,3.99131-1.90667c.84272-.6388.96877-.97675.4834-.98731a35.08671,35.08671,0,0,0-4.07087,1.89679c-2.21937,1.09735-3.15708,1.9021-6.169,3.16772-.23905.1-.04838-.0838.12652-.21881a64.449,64.449,0,0,1,7.13032-3.74023C22.97883,18.19389,24.2661,17.59525,26.08422,16.7266Z" style="fill:#020f14"/></svg>