<svg xmlns="http://www.w3.org/2000/svg" viewBox="0 0 108 44.9"><title>robot-hand-white</title><path d="M51.8,28.2l-37.3.2c-3.3,0-6-1.7-6-3.7h0a9.31632,9.31632,0,0,1,3.69288-7.67L51.8,17.86925V28.2" style="fill:#fff"/><rect x="51.70065" y="16.10027" width="40.2005" height="12.00015" transform="translate(-0.10941 0.35863) rotate(-0.28596)" style="fill:#fff"/><polygon points="51.682 16.349 91.882 16.148 101.707 21.374 91.921 28.1 51.721 28.301 51.682 16.349" style="fill:#fff"/><path d="M51.8,29.1c-7.8.3-15.6.5-23.4.7-3.9.1-7.8.2-11.7.2H13.6a7.09105,7.09105,0,0,1-3.5-1.3A8.0902,8.0902,0,0,1,7.6,26a7.77286,7.77286,0,0,1,3.03594-10.56493L10.7,15.4a7.08512,7.08512,0,0,1,2.8-.9,2.76852,2.76852,0,0,0,.9-.1H28.3l11.7.2c3.9.1,7.8.1,11.7.2h0a1.36707,1.36707,0,0,1,1.4,1.33332q.00081.03335,0,.06668l.1,12a1.4,1.4,0,0,1-2.8,0l-.1-12,1.4,1.4c-3.9.2-7.8.2-11.7.3l-11.7.2-11.7.1H13.9A4.25927,4.25927,0,0,0,12,25.9a3.41,3.41,0,0,0,1.9.7h2.7c3.9,0,7.8,0,11.7.1,7.8.1,15.6.2,23.4.5a.89626.89626,0,0,1,.9.8925V28.1A.915.915,0,0,1,51.8,29.1Z" style="fill:#020f14"/><path d="M92.8,15c.3,4.2.5,8.7.5,13a1.36706,1.36706,0,0,1-1.33333,1.4q-.03331.00081-.06667,0l-40.2.2a1.36707,1.36707,0,0,1-1.4-1.33332q-.00081-.03335,0-.06668h0l-.1-12a1.36707,1.36707,0,0,1,1.33333-1.4q.03333-.00081.06667,0C65.4,14.7,79.2,14.8,92.8,15Zm-1.9,2c-13.2.3-26.1.6-39.2.6l1.4-1.4.1,12-1.4-1.4L92,26.6,90.5,28C90.5,24.3,90.6,20.8,90.9,17Z" style="fill:#020f14"/><path d="M91.3,26.8,103,20.7v2.5c-2-1-3.9-1.9-5.9-2.9-1-.5-2-1-2.9-1.5-1-.5-1.9-1-2.9-1.6a1.34228,1.34228,0,0,1-.54819-1.81739q.0226-.04215.04819-.08261a1.44277,1.44277,0,0,1,1.8-.6c1,.5,2,.9,3,1.4s2,1,2.9,1.5c1.9,1,3.9,2,5.8,3h0a1.46335,1.46335,0,0,1,.6,1.9,1.167,1.167,0,0,1-.6.6L92.6,29.2a1.375,1.375,0,0,1-1.86828-.539Q90.7151,28.63091,90.7,28.6a1.26711,1.26711,0,0,1,.6-1.8Z" style="fill:#020f14"/><line x1="103.6" y1="21.9" x2="105.7" y2="21.9" style="fill:none;stroke:#020f14;stroke-linecap:round;stroke-linejoin:round;stroke-width:2.8096001148223877px"/><line x1="16" y1="22.4" x2="28.7" y2="22.3" style="fill:none;stroke:#020f14;stroke-linecap:round;stroke-linejoin:round;stroke-width:2.8096001148223877px"/><path d="M40.9,12.4c-2,1.2-4.3,1.9-5.1,1.1-.7-.8,1.1-3.5,3.2-5.2,2.4-2,5.1-3.5,6.1-2.7C46.5,6.6,43.8,9.4,40.9,12.4Z" style="fill:#020f14"/><path d="M48.8,37.5c3,3,5.5,6.4,4.8,7.3-.7.8-5.7-2.3-9.6-5.6-4.4-3.7-8.2-7.9-7.7-9C37,28.5,42.8,32.9,48.8,37.5Z" style="fill:#020f14"/><path d="M69.7,34.1C62,39.8,54.2,44.9,53.6,44c-.6-.8,8-8.8,16.4-15.7L69.2,30V27.9c0-5.1.1-10.1.4-14.2l.6,1.3c-5-5-8.2-8.7-8-9.6.2-1.1,4.3,2,10.2,6.9a1.74313,1.74313,0,0,1,.6,1.2v.1c.2,4.7.3,10.4.4,16.3a1.98968,1.98968,0,0,1-.7,1.6h-.1Z" style="fill:#020f14"/></svg>