<svg xmlns="http://www.w3.org/2000/svg" viewBox="0 0 8 7"><title>single-dot</title><path d="M1.90406,1.576A1.30627,1.30627,0,0,0,.21785,1.3153c-.697.42325.5593,1.0575-.08431,1.54653A1.00273,1.00273,0,0,1,.21428,4.08441c-.17574.31526-.03443.98923.30993,1.00537,1.36085.072,1.66365,2.59162,3.091,1.73147.90723-.55234,2.29063-.30658,2.81193-1.6508.09025-.23582.66618-.24451,1.01173-.39594.57118-.25072.76948-1.7265.29568-1.74388C5.92959,2.97478,5.6541.98266,4.32413.22056,3.38128-.32432,2.911.31986,2.252.25656c-.83836-.07572.412.91972-.34793,1.31939" style="fill:#020f14;fill-rule:evenodd"/></svg>