<?xml version="1.0" encoding="UTF-8"?>
<svg width="54px" height="6px" viewBox="0 0 54 6" version="1.1" xmlns="http://www.w3.org/2000/svg" xmlns:xlink="http://www.w3.org/1999/xlink" preserveAspectRatio="none">
    <!-- Generator: Sketch 60.1 (88133) - https://sketch.com -->
    <title>Fill 1</title>
    <desc>Created with Sketch.</desc>
    <g id="Design" stroke="none" stroke-width="1" fill="none" fill-rule="evenodd">
        <g id="Home-" transform="translate(-439.000000, -560.000000)" fill="#231F20" stroke="#020F14">
            <g id="Hero" transform="translate(-1.000000, -22.000000)">
                <g id="Hero-Copy" transform="translate(302.000000, 232.000000)">
                    <g id="Group-5" transform="translate(0.000000, 275.000000)">
                        <path d="M191,76.7056212 C190.712237,77.8022741 188.756111,77.5190456 187.865075,78.1178436 L184.446267,78.1178436 C183.837561,78.2266269 183.902952,77.7816935 183.876175,77.4112424 C183.602383,77.8081543 182.980482,78.1051032 182.450944,77.6464495 C181.694184,77.6444894 180.823717,77.7356321 180.456397,77.4112424 C179.688383,77.9541787 177.708389,77.4955249 176.467109,77.6464495 C171.705345,78.6460795 164.396404,78.1335241 160.224718,78.5872777 C159.351146,78.3099294 158.833056,78.6725403 157.945319,78.1178436 C157.111137,78.0541417 157.07,78.6490196 156.235624,78.5872777 C155.462371,78.4412533 153.974077,78.8861867 153.670985,78.3520707 C152.395554,78.7930839 149.70149,79.3026992 148.257243,78.8215048 C147.858489,79.6457095 147.202242,78.7979841 146.546966,79.2928989 L143.982909,79.2928989 C142.493063,79.4016822 140.656465,80.461094 139.138677,79.7642931 C138.695099,79.32818 139.35445,78.3785315 140.563519,78.5872777 C141.158449,78.2168266 142.455419,78.4245928 143.127577,78.1178436 C144.992892,77.5141455 146.634673,77.9139975 148.257243,77.4112424 C149.945593,77.4524036 151.803729,77.1103734 153.670985,76.9418083 C155.379516,76.7869636 157.136945,76.6477995 159.084922,76.7056212 C159.904163,76.9712092 161.307273,76.7536426 161.934995,77.1760353 C162.354318,76.5517566 162.997175,76.9917898 163.64469,76.9418083 C164.397181,76.8830065 165.260469,76.4527736 166.778645,76.9418083 C169.275952,76.7075813 171.617638,76.2508875 173.617812,76.7056212 C175.240189,75.7608728 176.752544,76.167585 179.316795,76 C181.203067,76.2156065 183.26805,76.166605 185.870528,76.7056212 C187.530936,76.4694341 189.876891,75.3502405 191,76.7056212" id="Fill-1"></path>
                    </g>
                </g>
            </g>
        </g>
    </g>
</svg>